<svg xmlns="http://www.w3.org/2000/svg" width="229" height="30" viewBox="0 0 229 30">
  <defs>
    <style>
      .cls-1, .cls-4 {
        fill: #fff;
      }

      .cls-2 {
        fill: #797979;
      }

      .cls-3 {
        fill: #010101;
      }

      .cls-4 {
        fill-rule: evenodd;
      }
    </style>
  </defs>
  <g id="Group_587" data-name="Group 587" transform="translate(10040)">
    <g id="Group_589" data-name="Group 589" transform="translate(60)">
      <rect id="Rectangle_155" data-name="Rectangle 155" class="cls-1" width="50" height="30" transform="translate(-9921)"/>
      <g id="image-4" transform="translate(-9910 11)">
        <path id="Path_50" data-name="Path 50" d="M4.153.465H.457V.652c2.127.43,5.166,3.436,5.882,5.793l-1.16-5.12A.955.955,0,0,0,4.153.465ZM21.324.8q-.12.984-.316,1.89a4.863,4.863,0,0,0-2.077-.414c-.533.036-1.165.245-1.173.737-.01.544.866.868,1.354,1.106.88.43,1.822,1,1.9,2.167a2.774,2.774,0,0,1-.813,2.12c-1.23,1.188-3.96,1.314-5.823.554q.174-.953.316-1.937a5.373,5.373,0,0,0,2.8.6c.5-.063,1.1-.358,1.083-.876-.021-.633-1.178-1.01-1.76-1.337a2.544,2.544,0,0,1-1.49-1.983,2.566,2.566,0,0,1,.542-1.66C16.824.544,19.3.11,21.324.8ZM10.566,9.3,11.982.63H14.3L12.882,9.3Z" transform="translate(-0.457 -0.465)"/>
        <path id="Path_51" data-name="Path 51" d="M8.63.612c-.8,1.92-1.48,3.96-2.3,5.855L6.087,5.33l-.005-.014.04.2a5.375,5.375,0,0,0-.9-1.72q-.1-.133-.214-.262c-.044-.053-.1-.108-.144-.16a12.692,12.692,0,0,0-2.2-2.164L4.973,9.28H7.456C8.625,6.355,9.886,3.525,11.067.613H8.63Zm20.5,8.713H27.012c-.138-.413-.176-.927-.316-1.337H23.807l-.542,1.337H20.828L23.988,1.9c.139-.326.39-.77.5-.968.16-.3.782-.323,1.046-.323h1.753ZM25.618,3.013l-1.18,3.223h1.908Z" transform="translate(-0.457 -0.465)"/>
      </g>
    </g>
    <g id="Group_588" data-name="Group 588" transform="translate(60)">
      <rect id="Rectangle_154" data-name="Rectangle 154" class="cls-1" width="50" height="30" transform="translate(-9980)"/>
      <path id="image-3" d="M24.08,5.084a2.315,2.315,0,0,1-.338.178,1.206,1.206,0,0,1-.45.1.979.979,0,0,1-.489-.1.342.342,0,0,1-.168-.328.682.682,0,0,1,.125-.43.89.89,0,0,1,.368-.253,3.105,3.105,0,0,1,.567-.13c.2-.025.584-.07.633-.071s.083-.029.061.107q-.083.372-.173.742a.417.417,0,0,1-.137.182Zm1.522-3.3a3.225,3.225,0,0,0-1.537-.28,6.674,6.674,0,0,0-1.042.084c-.256.04-.283.046-.442.082a.509.509,0,0,0-.377.407l-.1.442c-.06.282.1.27.168.249a4.3,4.3,0,0,1,.511-.156,3.67,3.67,0,0,1,.808-.11,2.092,2.092,0,0,1,.78.112.4.4,0,0,1,.26.4.292.292,0,0,1-.013.123c-.015.035-.042.069-.125.08-.491.03-.844.076-1.269.139a3.9,3.9,0,0,0-1.093.307,1.709,1.709,0,0,0-.74.6,1.655,1.655,0,0,0-.247.918,1.088,1.088,0,0,0,.352.833,1.3,1.3,0,0,0,.908.318,2.39,2.39,0,0,0,.54-.052,2.68,2.68,0,0,0,.414-.145,2.147,2.147,0,0,0,.355-.2c.125-.086.212-.146.324-.221l0,.007L24,5.857l0,0v0a.26.26,0,0,0,.23.329l0,0h.8a.016.016,0,0,0,.013-.005.452.452,0,0,0,.368-.33l.629-2.772a1.745,1.745,0,0,0,.032-.227,1.743,1.743,0,0,0,.015-.211.934.934,0,0,0-.49-.869ZM14.79,1.562a.734.734,0,0,0-.54.337S13.016,4.059,12.9,4.275c-.066.116-.133.043-.144,0l-.382-2.361a.472.472,0,0,0-.47-.345h-.768a.261.261,0,0,0-.26.336s.587,3.4.7,4.2c.057.442-.006.521-.006.521l-.762,1.358c-.112.184-.05.335.134.335h.891a.717.717,0,0,0,.539-.335L15.8,2.065s.328-.506.026-.5c-.206,0-1.033,0-1.033,0M5.826,1.009A1.3,1.3,0,0,0,5.354.492,2.145,2.145,0,0,0,4.607.21,6.022,6.022,0,0,0,3.59.128H1.795a.452.452,0,0,0-.413.335L.17,5.844a.262.262,0,0,0,.261.337h.86A.443.443,0,0,0,1.7,5.845L2,4.539a.442.442,0,0,1,.41-.334h.246a4.017,4.017,0,0,0,2.456-.66A2.076,2.076,0,0,0,5.99,1.8a1.682,1.682,0,0,0-.164-.793M3.967,2.766a1.777,1.777,0,0,1-1.086.291h-.21a.261.261,0,0,1-.263-.335l.259-1.14a.44.44,0,0,1,.411-.335l.282,0a1.329,1.329,0,0,1,.747.172.577.577,0,0,1,.248.523.953.953,0,0,1-.388.826M21.45,1.008a1.338,1.338,0,0,0-.474-.52,2.111,2.111,0,0,0-.748-.28,5.886,5.886,0,0,0-1.012-.08h-1.8a.451.451,0,0,0-.41.335L15.8,5.845a.258.258,0,0,0,.258.334h.864a.45.45,0,0,0,.414-.333l.292-1.306a.444.444,0,0,1,.413-.334h.246a4.011,4.011,0,0,0,2.456-.661A2.089,2.089,0,0,0,21.615,1.8a1.729,1.729,0,0,0-.165-.791m-1.857,1.76a1.789,1.789,0,0,1-1.086.287h-.214a.257.257,0,0,1-.26-.334l.257-1.142a.443.443,0,0,1,.41-.333h.283a1.366,1.366,0,0,1,.747.17.59.59,0,0,1,.25.524.971.971,0,0,1-.387.829M8.451,5.08a2.315,2.315,0,0,1-.338.178,1.2,1.2,0,0,1-.449.1,1,1,0,0,1-.49-.1.344.344,0,0,1-.167-.329A.678.678,0,0,1,7.132,4.5.889.889,0,0,1,7.5,4.25a3.081,3.081,0,0,1,.567-.13c.2-.025.585-.07.635-.071s.082-.029.06.107c-.01.058-.122.528-.173.742a.428.428,0,0,1-.137.182Zm1.523-3.3A3.225,3.225,0,0,0,8.437,1.5a6.577,6.577,0,0,0-1.043.084c-.256.04-.282.046-.44.082a.511.511,0,0,0-.378.407l-.106.442c-.06.282.1.27.168.249a4.348,4.348,0,0,1,.513-.155,3.73,3.73,0,0,1,.807-.111,2.092,2.092,0,0,1,.78.112.4.4,0,0,1,.26.4.281.281,0,0,1-.013.124c-.015.035-.042.068-.124.079-.492.03-.844.076-1.27.14A3.9,3.9,0,0,0,6.5,3.656a1.708,1.708,0,0,0-.739.6,1.639,1.639,0,0,0-.247.918,1.09,1.09,0,0,0,.351.833,1.3,1.3,0,0,0,.908.318,2.4,2.4,0,0,0,.54-.051,2.654,2.654,0,0,0,.414-.146,2.147,2.147,0,0,0,.355-.2c.125-.085.213-.146.325-.22l0,.006-.031.141,0,0v0a.26.26,0,0,0,.23.33l0,0h.8a.015.015,0,0,0,.012-.005.454.454,0,0,0,.369-.33l.628-2.771a1.61,1.61,0,0,0,.032-.227,1.758,1.758,0,0,0,.015-.212.935.935,0,0,0-.49-.87ZM28.57.192H27.8a.445.445,0,0,0-.405.313l-.008.021-.05.234-1.057,4.9-.046.2,0,0a.259.259,0,0,0,.23.329l0,0h.8a.447.447,0,0,0,.4-.31.121.121,0,0,0,.008-.025L28.831.526h0a.26.26,0,0,0-.26-.334" transform="translate(-9969.162 10.873)"/>
    </g>
    <g id="Group_587-2" data-name="Group 587" transform="translate(60)">
      <rect id="Rectangle_153" data-name="Rectangle 153" class="cls-1" width="50" height="30" transform="translate(-10040)"/>
      <g id="image-2" transform="translate(-10027 8)">
        <path id="Path_45" data-name="Path 45" class="cls-2" d="M12.507,13.636a6.325,6.325,0,0,0,.63-.659H11.859a4.188,4.188,0,0,1-.6-.84h2.5s.242-.385.4-.71h-3.3a5.044,5.044,0,0,1-.368-.875h4.017a6.416,6.416,0,0,0,.2-.689l-4.4.006a7.66,7.66,0,0,1,.19-3.982l4-.006a5.408,5.408,0,0,0-.277-.722H10.782c.139-.292.34-.659.456-.844l2.514,0a5.951,5.951,0,0,0-.483-.67H11.72a5.706,5.706,0,0,1,.782-.828h.013l-.015,0A7.1,7.1,0,0,1,17.3.943a7.23,7.23,0,0,1,7.183,7.276A7.23,7.23,0,0,1,17.3,15.495a7.1,7.1,0,0,1-4.8-1.86Z" transform="translate(-0.512 -0.943)"/>
        <path id="Path_46" data-name="Path 46" class="cls-3" d="M14.879,8.22A7.23,7.23,0,0,1,7.695,15.5,7.23,7.23,0,0,1,.512,8.22,7.229,7.229,0,0,1,7.7.943,7.232,7.232,0,0,1,14.88,8.22Z" transform="translate(-0.512 -0.943)"/>
        <path id="Path_47" data-name="Path 47" class="cls-1" d="M9.088,7.343l-.116.547-.63-.014s-.315.07-.315.182.232.253.58.38a.6.6,0,0,1,.332.716c-.033.239-.083.734-1.094.759a3.077,3.077,0,0,1-.895-.085l.132-.56s.746.168.912.07.364-.268.05-.38-.83-.3-.83-.745a.806.806,0,0,1,.548-.828,2.957,2.957,0,0,1,1.326-.042Zm-4.98,2.5H3.375L3.8,7.714l-.906,2.12h-.5l-.122-2.2L1.825,9.849H1.132l.653-3.257h.84l.3,1.875L3.9,6.592h.863Zm5.634.045a.8.8,0,0,1-.51-.13.517.517,0,0,1-.154-.4.87.87,0,0,1,.012-.13c.006-.046.017-.1.022-.157l.44-2.084h.688l-.1.406h.642l-.108.516h-.641L9.857,8.8q-.018.091-.035.182a.937.937,0,0,0-.016.157c0,.091.016.15.062.183a.322.322,0,0,0,.2.053.727.727,0,0,0,.136-.02.943.943,0,0,0,.142-.053H10.4l-.108.523a2.028,2.028,0,0,1-.552.072ZM14.673,8.08c-.15-.1-.485-.079-.554.123l-.33,1.645H13.1L13.6,7.394h.687l-.015.2a.818.818,0,0,1,.644-.2,2.312,2.312,0,0,0-.24.683Zm1.3,1.833a1.168,1.168,0,0,1-.885-.326,1.284,1.284,0,0,1-.313-.933,2.645,2.645,0,0,1,.136-.869,2.146,2.146,0,0,1,.38-.672,1.725,1.725,0,0,1,.57-.43,1.56,1.56,0,0,1,.691-.157,2.131,2.131,0,0,1,.546.071c.082.024.24.088.24.088l-.159.774a1.12,1.12,0,0,0-.24-.2.874.874,0,0,0-.421-.1.823.823,0,0,0-.7.392,1.671,1.671,0,0,0-.279,1,.856.856,0,0,0,.154.567.577.577,0,0,0,.443.17,1.084,1.084,0,0,0,.5-.118,2.406,2.406,0,0,0,.213-.132l-.16.74s-.083.033-.123.045c-.1.032-.18.052-.254.071a2.028,2.028,0,0,1-.335.027ZM5.8,9.762c-.029.02-.057.034-.08.047a1.9,1.9,0,0,1-.2.078,1.27,1.27,0,0,1-.26.026.583.583,0,0,1-.432-.17.621.621,0,0,1-.17-.45.974.974,0,0,1,.119-.5.836.836,0,0,1,.358-.32,1.7,1.7,0,0,1,.522-.163l.142-.02a4.42,4.42,0,0,1,.523-.052.168.168,0,0,1,0-.046.215.215,0,0,0,.006-.065.23.23,0,0,0-.125-.222.942.942,0,0,0-.375-.058H5.8a1.411,1.411,0,0,0-.34.065,2.991,2.991,0,0,0-.307.111H5.09l.1-.58a2.57,2.57,0,0,1,.369-.08A1.51,1.51,0,0,1,5.8,7.335a1.762,1.762,0,0,1,.262-.013,1.428,1.428,0,0,1,.737.15.506.506,0,0,1,.234.47.845.845,0,0,1-.006.112q-.008.062-.018.123l-.334,1.67H5.992l.051-.26c-.04.032-.1.071-.153.117-.035.02-.063.04-.091.058Zm0-1.017a1,1,0,0,0-.188.052.366.366,0,0,0-.175.137.373.373,0,0,0-.063.235.194.194,0,0,0,.08.176.468.468,0,0,0,.346.032.676.676,0,0,0,.108-.032,1.54,1.54,0,0,0,.216-.137l.1-.522c-.12.013-.239.026-.34.046a.336.336,0,0,0-.086.013Z" transform="translate(-0.512 -0.943)"/>
        <path id="Path_48" data-name="Path 48" class="cls-1" d="M11.738,7.818a.447.447,0,0,0-.244.117.853.853,0,0,0-.222.366H12.2c0-.026.006-.046.006-.072s.006-.045.006-.064a.368.368,0,0,0-.1-.27.372.372,0,0,0-.267-.09.6.6,0,0,0-.108.013Zm0,1.54h.1a1.059,1.059,0,0,0,.426-.085,1.938,1.938,0,0,0,.346-.195h.079l-.13.632a1.721,1.721,0,0,1-.42.15,1.971,1.971,0,0,1-.4.053h-.062a1.175,1.175,0,0,1-.847-.28.989.989,0,0,1-.3-.764,1.9,1.9,0,0,1,.1-.614,1.516,1.516,0,0,1,.278-.5,1.332,1.332,0,0,1,.437-.326,1.6,1.6,0,0,1,.392-.111c.062-.006.125-.006.187-.006a1.029,1.029,0,0,1,.722.221.844.844,0,0,1,.239.653,1.729,1.729,0,0,1-.091.574H11.2v.052a.526.526,0,0,0,.159.4.61.61,0,0,0,.375.144Zm6.436.4a.514.514,0,0,1-.085.047,1.514,1.514,0,0,1-.2.078,1.262,1.262,0,0,1-.256.026.6.6,0,0,1-.437-.17.618.618,0,0,1-.165-.45.964.964,0,0,1,.12-.5.851.851,0,0,1,.352-.32,1.708,1.708,0,0,1,.528-.163l.142-.02a4.285,4.285,0,0,1,.517-.052A.213.213,0,0,0,18.7,8.2c0-.019.007-.039.007-.065a.238.238,0,0,0-.126-.222.937.937,0,0,0-.374-.058h-.034a1.32,1.32,0,0,0-.34.065,3.122,3.122,0,0,0-.308.111h-.062l.1-.58a2.507,2.507,0,0,1,.375-.08,1.5,1.5,0,0,1,.237-.032,1.729,1.729,0,0,1,.262-.013,1.441,1.441,0,0,1,.739.15.519.519,0,0,1,.232.47,1.013,1.013,0,0,1,0,.112l-.018.123-.335,1.67h-.682l.053-.26c-.046.032-.1.071-.16.117Zm0-1.017a1.213,1.213,0,0,0-.192.052.4.4,0,0,0-.176.137.406.406,0,0,0-.063.235.186.186,0,0,0,.086.176.442.442,0,0,0,.345.032.464.464,0,0,0,.1-.032,1.3,1.3,0,0,0,.217-.137l.107-.522q-.174.016-.346.046a.27.27,0,0,0-.08.013Zm2.9-.665c-.15-.1-.484-.079-.554.123l-.33,1.645H19.5L20,7.394h.686l-.014.2a.818.818,0,0,1,.645-.2,2.332,2.332,0,0,0-.241.683Z" transform="translate(-0.512 -0.943)"/>
        <path id="Path_49" data-name="Path 49" class="cls-4" d="M22.423,7.916a.49.49,0,0,0-.1.052.7.7,0,0,0-.227.222,1.1,1.1,0,0,0-.125.333,1.488,1.488,0,0,0-.051.385.483.483,0,0,0,.09.32.346.346,0,0,0,.273.1.351.351,0,0,0,.137-.027,1.265,1.265,0,0,0,.255-.137l.244-1.207a.584.584,0,0,0-.147-.053.482.482,0,0,0-.154-.026A.625.625,0,0,0,22.423,7.916Zm0,1.8a1.142,1.142,0,0,1-.171.111,1.03,1.03,0,0,1-.164.065.9.9,0,0,1-.2.02.62.62,0,0,1-.5-.229,1.072,1.072,0,0,1-.181-.66,2.062,2.062,0,0,1,.1-.658,1.8,1.8,0,0,1,.268-.541,1.318,1.318,0,0,1,.4-.366.98.98,0,0,1,.456-.138h.022a1.054,1.054,0,0,1,.307.04,1.108,1.108,0,0,1,.267.13l.153-.855h.687l-.63,3.212h-.687l.05-.255c-.062.045-.12.085-.17.124Z" transform="translate(-0.512 -0.943)"/>
      </g>
    </g>
    <g id="Group_590" data-name="Group 590" transform="translate(-179)">
      <rect id="Rectangle_156" data-name="Rectangle 156" class="cls-1" width="50" height="30" transform="translate(-9861)"/>
      <path id="image" d="M.335,7.772a2.4,2.4,0,0,0,1.17.35.553.553,0,0,0,.62-.548c0-.29-.155-.489-.59-.768a1.794,1.794,0,0,1-.941-1.48A1.939,1.939,0,0,1,2.7,3.393a2.3,2.3,0,0,1,1.2.268L3.573,4.8a1.943,1.943,0,0,0-.89-.221c-.4,0-.662.21-.662.536,0,.256.186.443.548.664A1.881,1.881,0,0,1,3.593,7.319a1.958,1.958,0,0,1-2.2,1.992,2.571,2.571,0,0,1-1.406-.4L.335,7.772ZM3.883,9.2,5.268.993H6.7L6.148,4.22l.02.01a1.87,1.87,0,0,1,1.51-.85c.745,0,1.17.548,1.17,1.457a6.727,6.727,0,0,1-.1,1.048L8.185,9.2H6.758L7.3,5.99a4.162,4.162,0,0,0,.062-.71c0-.35-.124-.6-.445-.6-.455,0-.94.653-1.127,1.713L5.311,9.2H3.883ZM14.008,5.629c0,1.992-1.138,3.692-2.823,3.692A2,2,0,0,1,9.22,7.074c0-1.946,1.137-3.693,2.854-3.693a1.993,1.993,0,0,1,1.934,2.248Zm-3.33,1.41c0,.582.207,1.048.693,1.048.755,0,1.179-1.515,1.179-2.505,0-.477-.166-.966-.673-.966-.775,0-1.2,1.5-1.2,2.423Zm2.989,4.449.993-5.882q.174-1.062.29-2.132h1.261l-.083.862h.02a1.851,1.851,0,0,1,1.51-.956c1.045,0,1.47.967,1.47,2.05,0,1.957-1.1,3.891-2.772,3.891a1.571,1.571,0,0,1-.838-.21h-.03l-.394,2.377Zm2.038-3.611a.823.823,0,0,0,.589.233c.8,0,1.344-1.48,1.344-2.516,0-.431-.134-.885-.569-.885-.5,0-.961.663-1.127,1.665l-.237,1.5ZM19.169,9.2l.962-5.7h1.437L20.6,9.2H19.17ZM21.02,2.81c-.4,0-.672-.326-.672-.8a.872.872,0,0,1,.817-.933.725.725,0,0,1,.713.8.857.857,0,0,1-.837.932h-.02ZM21.837,9.2l.755-4.5h-.661L22.138,3.5H22.8l.04-.268a3.2,3.2,0,0,1,.829-1.817,1.97,1.97,0,0,1,1.4-.536,1.808,1.808,0,0,1,.775.14l-.28,1.258a1.253,1.253,0,0,0-.455-.082c-.475,0-.765.49-.848,1.037l-.051.268H25.2L25,4.709h-.983l-.755,4.5H21.837Zm5.13-5.7.228,2.562c.062.572.1.979.124,1.352h.02c.114-.384.217-.746.424-1.363l.87-2.551h1.489L28.374,7.725A11,11,0,0,1,26.5,10.917a3.169,3.169,0,0,1-1.4.874l-.393-1.363a2.96,2.96,0,0,0,.807-.455,2.666,2.666,0,0,0,.775-.966.382.382,0,0,0,.031-.268l-.858-5.23h1.5Z" transform="translate(-9850.984 9.123)"/>
    </g>
  </g>
</svg>
